C:\GBW_MyPrograms\KinderuniversiteitApp\Resultaten\Ellis_v10102025\Olaf\Olaf_v1.mot
version=1
nRows=18
nColumns=29
inDegrees=yes
endheader
                time	         pelvis_tilt	           pelvis_tx	           pelvis_ty	       hip_flexion_l	       hip_flexion_r	        knee_angle_l	        knee_angle_r	       ankle_angle_l	       ankle_angle_r	    lumbar_extension	hamstrings_r/activation	bifemsh_r/activation	glut_max_r/activation	iliopsoas_r/activation	rect_fem_r/activation	  vasti_r/activation	gastroc_r/activation	 soleus_r/activation	tib_ant_r/activation	hamstrings_l/activation	bifemsh_l/activation	glut_max_l/activation	iliopsoas_l/activation	rect_fem_l/activation	  vasti_l/activation	gastroc_l/activation	 soleus_l/activation	tib_ant_l/activation	
          1.37599877	        -10.51404687	          1.81516373	          0.89703084	         27.41989371	         -4.24481108	         -0.53363183	        -14.68762680	          7.50276828	          3.10080979	          2.16319649	          0.05125636	          0.42406313	          0.05000000	          0.99594570	          0.05000000	          0.05000000	          0.48549401	          0.84312635	          0.05000000	          0.48216608	          0.05000006	          0.12943319	          0.05000000	          0.06453437	          0.05000007	          0.05764443	          0.05764443	          0.41850343	
          1.38517210	        -10.46634619	          1.83021130	          0.89572666	         26.49348423	         -3.88700613	          0.20544449	        -17.11776992	          7.12136044	          2.26875023	          2.47549454	          0.08922267	          0.36782659	          0.05000000	          0.89403718	          0.05000000	          0.05000000	          0.42111089	          0.73131631	          0.05000000	          0.45452507	          0.05000004	          0.22127244	          0.05000000	          0.05597624	          0.06645762	          0.05000000	          0.05000000	          0.54606787	
          1.39434542	        -10.42218041	          1.84524715	          0.89434213	         25.65648604	         -3.29092033	          0.08247874	        -19.92806876	          6.50574395	          1.20512395	          2.79381133	          0.11740719	          0.31904778	          0.05000000	          0.77547568	          0.05000000	          0.05000000	          0.36526585	          0.63433381	          0.05000000	          0.41853713	          0.05000005	          0.32407479	          0.05000000	          0.05000000	          0.05764444	          0.06645759	          0.05764446	          0.52859339	
          1.40351875	        -10.38834234	          1.86004806	          0.89314264	         24.84417986	         -2.42675218	         -0.22005012	        -23.07821278	          6.01123712	         -0.29656529	          3.09535826	          0.10183740	          0.27673770	          0.05000000	          0.67263704	          0.05000000	          0.05000000	          0.31682662	          0.55021250	          0.05000000	          0.38690204	          0.06645763	          0.47078796	          0.05000000	          0.05000000	          0.05000000	          0.05764441	          0.05000002	          0.70748339	
          1.41269207	        -10.37233981	          1.87434640	          0.89245118	         24.06516389	         -1.28546545	         -0.46117899	        -26.48345867	          5.32679911	         -2.33891561	          3.35243384	          0.08833237	          0.24003851	          0.05000014	          0.58343620	          0.24607329	          0.05000000	          0.27481110	          0.47724683	          0.41050724	          0.37663921	          0.05764446	          0.57932126	          0.05000000	          0.05000000	          0.11446024	          0.05000000	          0.05000000	          0.78105932	
          1.42186540	        -10.37560804	          1.88798870	          0.89236910	         23.35202317	          0.05467110	         -0.73271590	        -29.97455131	          4.85670117	         -4.30528983	          3.54629379	          0.07661830	          0.20820614	          0.05000000	          0.50606462	          0.47659052	          0.05000000	          0.23836740	          0.41395740	          0.49965099	          0.35185033	          0.05000005	          0.59049336	          0.05000000	          0.05000000	          0.18316651	          0.05000000	          0.05000000	          0.81038802	
          1.43103872	        -10.39629489	          1.90098646	          0.89291214	         22.69397157	          1.49255740	         -1.02519640	        -33.35032024	          4.64209942	         -4.95993689	          3.67627604	          0.06645767	          0.18059518	          0.05000000	          0.43895356	          0.65241517	          0.05000000	          0.20675664	          0.35906101	          0.61359106	          0.33399766	          0.05000004	          0.55996172	          0.05000000	          0.05000000	          0.17912571	          0.05000000	          0.05000000	          0.76744847	
          1.44021205	        -10.43063642	          1.91345323	          0.89404953	         22.07488257	          2.97254113	         -1.32366775	        -36.45043868	          4.63235680	         -5.18645741	          3.75292236	          0.05764448	          0.21442698	          0.05000000	          0.38074236	          0.78431711	          0.05000000	          0.17933789	          0.31144463	          0.62739554	          0.31774392	          0.05000004	          0.52282158	          0.05000000	          0.05000000	          0.17222770	          0.05000000	          0.05000000	          0.70843390	
          1.44938537	        -10.47510675	          1.92551707	          0.89563867	         21.47810190	          4.45598246	         -1.61058523	        -39.20351979	          4.75311473	         -5.23059104	          3.78923306	          0.05000004	          0.25798702	          0.05000000	          0.36234879	          0.86616472	          0.05000000	          0.15555525	          0.27014283	          0.59245787	          0.30851090	          0.05000004	          0.49665744	          0.05000000	          0.05000000	          0.16385389	          0.05000000	          0.05000000	          0.64796601	
          1.45855870	        -10.52695206	          1.93728856	          0.89751177	         20.88588463	          5.92298182	         -1.86395720	        -41.59748928	          4.93549004	         -5.12716841	          3.79684278	          0.05000000	          0.30633113	          0.05000000	          0.35848274	          0.91394009	          0.05000000	          0.13492650	          0.23431821	          0.55203351	          0.30245285	          0.05000005	          0.47631352	          0.05000000	          0.05000000	          0.15505923	          0.05000000	          0.05000000	          0.59734847	
          1.46773202	        -10.58351902	          1.94884991	          0.89952169	         20.28343798	          7.36744791	         -2.06688057	        -43.65049303	          5.13784713	         -4.92662211	          3.78366750	          0.05000000	          0.35553130	          0.05000000	          0.36189358	          0.91727985	          0.05000000	          0.11703341	          0.20324442	          0.50626620	          0.29713055	          0.05000005	          0.45766833	          0.05000000	          0.05000000	          0.14838500	          0.05000000	          0.05000000	          0.55883889	
          1.47690535	        -10.64169729	          1.96025732	          0.90155472	         19.65996346	          8.78957020	         -2.21026102	        -45.39549614	          5.34191198	         -4.64746705	          3.75353166	          0.05000000	          0.40971469	          0.05000000	          0.36722193	          0.89295715	          0.05000000	          0.10151319	          0.17629144	          0.46528089	          0.29181962	          0.05000005	          0.43623626	          0.05000000	          0.05000000	          0.14317553	          0.05000000	          0.05000000	          0.53042553	
          1.48607867	        -10.69891921	          1.97154723	          0.90352723	         19.00994905	         10.19333156	         -2.29290282	        -46.87076125	          5.54332223	         -4.30401974	          3.70823617	          0.05000000	          0.46545440	          0.05000000	          0.37362326	          0.84815275	          0.05000000	          0.08805116	          0.15291280	          0.42845420	          0.28532008	          0.05000005	          0.41256924	          0.05000000	          0.05000000	          0.13851214	          0.05000000	          0.05000000	          0.50947246	
          1.49525200	        -10.75321313	          1.98274300	          0.90537866	         18.33221243	         11.58400656	         -2.31945284	        -48.11502987	          5.74284340	         -3.89828337	          3.64853533	          0.05000000	          0.52257380	          0.05000000	          0.38016024	          0.79144057	          0.05000000	          0.07637438	          0.13263448	          0.39707918	          0.27747168	          0.05000005	          0.38777864	          0.05000000	          0.05000000	          0.13248313	          0.05000000	          0.05000000	          0.49337881	
          1.50442532	        -10.80309567	          1.99385997	          0.90706548	         17.62886355	         12.96691177	         -2.29891427	        -49.16468108	          5.94268463	         -3.43104495	          3.57468385	          0.05000000	          0.57927232	          0.05000000	          0.38612737	          0.72895044	          0.05000000	          0.06624610	          0.11504534	          0.37042001	          0.26842429	          0.05000005	          0.36289178	          0.05000000	          0.05000000	          0.12406022	          0.05000000	          0.05000000	          0.47960193	
          1.51359865	        -10.84748862	          2.00490861	          0.90855657	         16.90472105	         14.34669268	         -2.24390048	        -50.05238034	          6.14412749	         -2.90220904	          3.48676956	          0.05000000	          0.63392614	          0.05000000	          0.39162561	          0.66591213	          0.05000000	          0.05746097	          0.09978876	          0.34709162	          0.25806387	          0.05000005	          0.34045933	          0.05000000	          0.05000000	          0.10760864	          0.05000000	          0.05000000	          0.46614239	
          1.52277198	        -10.88567934	          2.01589615	          0.90983036	         16.16744385	         15.72717700	         -2.17115543	        -50.80636818	          6.34854352	         -2.31618393	          3.38487869	          0.05000000	          0.68603542	          0.05000000	          0.39629678	          0.60546158	          0.05000000	          0.05000000	          0.08655541	          0.32797246	          0.24700867	          0.05000006	          0.31831479	          0.05000000	          0.05000000	          0.09333829	          0.05000000	          0.05000000	          0.45360990	
          1.53194530	        -10.91724262	          2.02682969	          0.91087325	         15.42427688	         17.11094834	         -2.09557616	        -51.45015317	          6.55526848	         -1.67965580	          3.26940566	          0.05000000	          0.73506492	          0.05000000	          0.40008264	          0.55005812	          0.05000000	          0.05000000	          0.07507699	          0.31775680	          0.23541580	          0.05000008	          0.29771237	          0.05000000	          0.05000000	          0.08096038	          0.05000000	          0.05000000	          0.44044857	
